<svg width="33" height="33" viewBox="0 0 33 33" fill="none" xmlns="http://www.w3.org/2000/svg">
<path d="M24.7555 9.51779C24.7555 5.10779 21.1655 1.51779 16.7555 1.51779C12.3455 1.51779 8.75547 5.10779 8.75547 9.51779C8.75547 13.9278 12.3455 17.5178 16.7555 17.5178C21.1655 17.5178 24.7555 13.9278 24.7555 9.51779ZM11.7555 9.51779C11.7555 6.75779 13.9955 4.51779 16.7555 4.51779C19.5155 4.51779 21.7555 6.75779 21.7555 9.51779C21.7555 12.2778 19.5155 14.5178 16.7555 14.5178C13.9955 14.5178 11.7555 12.2778 11.7555 9.51779ZM19.1555 19.5178H14.3555C9.11547 19.5178 4.85547 23.7778 4.85547 29.0178C4.85547 29.8478 5.52547 30.5178 6.35547 30.5178H27.1555C27.9855 30.5178 28.6555 29.8478 28.6555 29.0178C28.6555 23.7778 24.3955 19.5178 19.1555 19.5178ZM8.02547 27.5178C8.70547 24.6578 11.2855 22.5178 14.3555 22.5178H19.1555C22.2255 22.5178 24.8055 24.6578 25.4855 27.5178H8.02547Z" fill="#F4F3F8"/>
</svg>
